<?xml version="1.0" encoding="UTF-8"?>
<svg width="16px" height="16px" viewBox="0 0 16 16" version="1.1" xmlns="http://www.w3.org/2000/svg" xmlns:xlink="http://www.w3.org/1999/xlink">
    <!-- Generator: Sketch 50.2 (55047) - http://www.bohemiancoding.com/sketch -->
    <title>favicon_qodeclub</title>
    <desc>Created with Sketch.</desc>
    <defs></defs>
    <g id="favicon_qodeclub" stroke="none" stroke-width="1" fill="none" fill-rule="evenodd">
        <g id="Logo_qodeclub_black">
            <rect id="bg" x="0" y="0" width="16" height="16"></rect>
            <path d="M5.04906054,13.5807237 C4.69647237,13.6456742 4.49698469,13.6781489 4.45059151,13.6781489 C3.48561336,13.6781489 2.75261211,13.4021136 2.25156576,12.8500348 C1.75051942,12.2979559 1.5,11.4884071 1.5,10.421364 L1.5,4.64544189 C1.5,3.61551329 1.75283904,2.83379993 2.2585247,2.30027836 C2.76421037,1.76675678 3.494892,1.5 4.45059151,1.5 C5.40629102,1.5 6.13697265,1.76675678 6.64265832,2.30027836 C7.14834398,2.83379993 7.40118302,3.61551329 7.40118302,4.64544189 L7.40118302,10.421364 C7.40118302,11.4048994 7.1784991,12.1842931 6.73312457,12.7595685 L7.76304802,13.4137091 L6.95581072,14.8333333 L5.04906054,13.5807237 Z M4.89596381,11.1450939 C4.96091427,10.9224067 4.993389,10.6347733 4.993389,10.2821851 L4.993389,4.68719555 C4.993389,4.38100056 4.95395539,4.13975964 4.87508699,3.96346555 C4.79621858,3.78717147 4.65008225,3.69902575 4.43667363,3.69902575 C4.05624955,3.69902575 3.86604036,4.02377314 3.86604036,4.67327766 L3.86604036,10.3239388 C3.86604036,10.6579697 3.90315435,10.9340049 3.97738344,11.1520529 C4.05161253,11.3701008 4.20934697,11.4791232 4.45059151,11.4791232 C4.68255741,11.4791232 4.83101336,11.3677812 4.89596381,11.1450939 Z" id="Qodeclub" fill="#363434"></path>
            <path d="M9.78636047,12.8569937 C9.26211754,12.3095542 9,11.557996 9,10.6022965 L9,5.0908142 C9,3.90314878 9.23660167,3.00777383 9.70981211,2.40466249 C10.1830225,1.80155115 10.9253023,1.5 11.9366736,1.5 C12.8181441,1.5 13.5279491,1.74124092 14.06611,2.22372999 C14.6042708,2.70621907 14.8733473,3.40210633 14.8733473,4.31141267 L14.8733473,6.37125957 L12.493389,6.37125957 L12.493389,4.60368824 C12.493389,4.26037871 12.4516358,4.02377704 12.368128,3.89387613 C12.2846203,3.76397523 12.1408036,3.69902575 11.9366736,3.69902575 C11.723265,3.69902575 11.5771287,3.77325372 11.4982603,3.9217119 C11.4193919,4.07017008 11.3799582,4.28821475 11.3799582,4.57585247 L11.3799582,10.5744607 C11.3799582,10.8899343 11.4263507,11.1195771 11.5191371,11.263396 C11.6119235,11.4072148 11.7511009,11.4791232 11.9366736,11.4791232 C12.3078191,11.4791232 12.493389,11.177572 12.493389,10.5744607 L12.493389,8.41718859 L14.901183,8.41718859 L14.901183,10.6718859 C14.901183,12.6760713 13.8944661,13.6781489 11.8810021,13.6781489 C11.0088103,13.6781489 10.3106034,13.4044333 9.78636047,12.8569937 Z" id="Combined-Shape" fill="#339FB1"></path>
        </g>
    </g>
</svg>