<svg width="156" height="156" viewBox="0 0 156 156" fill="none" xmlns="http://www.w3.org/2000/svg">
<g id="icons / icon_workplace">
<g id="icons / icon_workplace_2">
<path id="bg" fill-rule="evenodd" clip-rule="evenodd" d="M101 49C109.284 49 116 42.2843 116 34C116 25.7158 109.284 19 101 19C92.7157 19 86 25.7158 86 34C86 42.2843 92.7157 49 101 49ZM86 64.4142C86 54.0942 76.4151 46.5932 66.6284 49.8679C44.1116 57.4024 10 72.1913 10 92.6419C10 113.092 44.1116 127.881 66.6284 135.416C76.4151 138.691 86 131.19 86 120.87V64.4142ZM146 62C146 65.3137 143.314 68 140 68C136.686 68 134 65.3137 134 62C134 58.6863 136.686 56 140 56C143.314 56 146 58.6863 146 62Z" fill="#E7F5F9"/>
<path id="Shape" fill-rule="evenodd" clip-rule="evenodd" d="M46.7245 53L35.5924 53C34.7239 53 34 53.7203 34 54.5846V60.2023C34 61.0665 34.7239 61.7868 35.5924 61.7868H36.8952H45.5806H51.7969C49.3779 59.3429 47.7707 56.2621 46.7245 53ZM80.159 61.7868H89.0084H117.96H119.263C120.131 61.7868 120.855 61.0665 121 60.2023V54.5846C121 53.7203 120.276 53 119.408 53H85.2199C84.1769 56.2613 82.5741 59.3425 80.159 61.7868ZM89 65H118V104C118 104.552 117.552 105 117 105H90C89.4477 105 89 104.552 89 104V65ZM45 65H37V104C37 104.552 37.4477 105 38 105H44C44.5523 105 45 104.552 45 104V65ZM102.037 73.9889H104.932C105.801 73.9889 106.38 73.4128 106.38 72.5485C106.38 71.6843 105.801 71.1081 104.932 71.1081H102.037C101.168 71.1081 100.589 71.6843 100.589 72.5485C100.589 73.4128 101.168 73.9889 102.037 73.9889ZM104.932 86.3934H102.037C101.168 86.3934 100.589 85.8173 100.589 84.953C100.589 84.0888 101.168 83.5127 102.037 83.5127H104.932C105.801 83.5127 106.38 84.0888 106.38 84.953C106.38 85.8173 105.801 86.3934 104.932 86.3934ZM102.037 98.7978H104.932C105.801 98.7978 106.38 98.2216 106.38 97.3574C106.38 96.4931 105.801 95.917 104.932 95.917H102.037C101.168 95.917 100.589 96.4931 100.589 97.3574C100.589 98.2216 101.168 98.7978 102.037 98.7978Z" fill="#363434"/>
<path id="Shape_2" fill-rule="evenodd" clip-rule="evenodd" d="M49.1327 45.7192C49.0722 44.9659 49.3626 44.2297 49.9078 43.7555C50.4516 43.2616 51.1408 42.9934 51.8511 43.0001C52.1338 43.0027 52.4146 43.0432 52.6877 43.1215C57.0288 44.3454 61.4866 45.0224 65.9717 45.1386C70.4568 45.0224 74.9141 44.3454 79.2552 43.1215C80.2247 42.8305 81.2648 43.0697 82.0413 43.7617C82.5837 44.2364 82.8721 44.9721 82.8107 45.7238C82.0826 53.3424 78.5689 62.4286 65.9717 62.4286C62.6865 62.551 59.431 61.7215 56.5421 60.0255C56.534 60.0213 56.5268 60.0157 56.5196 60.0101C56.5128 60.0048 56.506 59.9995 56.4985 59.9954C51.4254 56.7789 49.629 50.9123 49.1327 45.7192ZM75.7247 71.7846C74.9525 71.8764 74.2071 71.9574 73.4891 72.0279L72.7735 63.875C73.5165 63.6395 74.2441 63.3526 74.953 63.0154L75.7247 71.7846ZM58.4543 72.0217L59.1699 63.8703C58.4269 63.6327 57.6988 63.3438 56.9904 63.0045L56.2187 71.7789C56.9909 71.8728 57.7358 71.9537 58.4543 72.0217ZM50.6781 110.552C50.5999 110.82 50.3695 111.002 50.1099 111C49.9323 111.002 49.7638 110.915 49.6525 110.766C49.5363 110.617 49.4888 110.419 49.5234 110.228L54.4203 84.8567C55.5463 85.3501 56.6957 85.7792 57.863 86.1423L50.6781 110.552ZM58.2608 92.5908L57.5462 94.7526H74.3924L73.6778 92.5908H58.2608ZM82.4176 110.218C82.4546 110.412 82.408 110.614 82.2904 110.766C82.1791 110.915 82.0106 111.002 81.8335 111C81.572 111.002 81.3406 110.817 81.2638 110.547L74.08 86.1403C75.2477 85.7766 76.3967 85.3475 77.5231 84.8542L82.4176 110.218ZM73.1556 83.912C78.5665 82.2664 82.2117 79.798 83.6938 76.7718C84.0768 76.0045 84.012 75.066 83.5273 74.3687C83.0176 73.5994 82.1407 73.2206 81.2806 73.3975C76.22 74.3101 71.1019 74.8024 65.9717 74.8694C60.8401 74.8024 55.721 74.3106 50.6589 73.3975C49.7989 73.2206 48.9225 73.5994 48.4123 74.3687C47.929 75.067 47.8652 76.005 48.2496 76.7718C49.7312 79.798 53.3764 82.2664 58.7878 83.912C63.4856 85.3413 68.4574 85.3413 73.1556 83.912Z" fill="#339FB1"/>
</g>
</g>
</svg>
