<svg width="156" height="156" viewBox="0 0 156 156" fill="none" xmlns="http://www.w3.org/2000/svg">
<g id="icons / icon_talk">
<g id="icons / icon_talk_2">
<path id="bg" fill-rule="evenodd" clip-rule="evenodd" d="M101 49C109.284 49 116 42.2843 116 34C116 25.7158 109.284 19 101 19C92.7157 19 86 25.7158 86 34C86 42.2843 92.7157 49 101 49ZM86 64.4142C86 54.0942 76.4151 46.5932 66.6284 49.8679C44.1116 57.4024 10 72.1913 10 92.6419C10 113.092 44.1116 127.881 66.6284 135.416C76.4151 138.691 86 131.19 86 120.87V64.4142ZM146 62C146 65.3137 143.314 68 140 68C136.686 68 134 65.3137 134 62C134 58.6863 136.686 56 140 56C143.314 56 146 58.6863 146 62Z" fill="#E7F5F9"/>
<path id="Combined Shape" fill-rule="evenodd" clip-rule="evenodd" d="M68.2153 93.2576C86.8 90.9051 101 78.1747 101 62.8234C101 59.558 100.358 56.4111 99.167 53.4575C113.89 55.6723 125 65.6656 125 77.6586C125 87.3827 117.695 95.7909 107.083 99.8056C106.343 104.471 107.805 109.406 111.474 113C104.432 113 98.4813 108.438 96.5239 102.168C95.3665 102.266 94.1911 102.318 93 102.318C83.007 102.318 74.0836 98.7876 68.2153 93.2576Z" fill="#363434"/>
<path id="Combined Shape_2" fill-rule="evenodd" clip-rule="evenodd" d="M28 62.7135C28 47.9603 43.2216 36 62 36C80.777 36 96.0002 47.9603 96 62.7137C96 77.467 80.7772 89.4273 62 89.4273C60.7344 89.4273 59.4856 89.3712 58.2559 89.2654C56.1761 96.058 49.8539 101 42.3714 101C46.2698 97.1063 47.8234 91.7598 47.0368 86.7061C35.7617 82.3568 28 73.2479 28 62.7135ZM51 62C51 63.6569 49.6569 65 48 65C46.3431 65 45 63.6569 45 62C45 60.3432 46.3431 59 48 59C49.6569 59 51 60.3432 51 62ZM62 65C63.6569 65 65 63.6569 65 62C65 60.3432 63.6569 59 62 59C60.3431 59 59 60.3432 59 62C59 63.6569 60.3431 65 62 65ZM79 62C79 63.6569 77.6569 65 76 65C74.3431 65 73 63.6569 73 62C73 60.3432 74.3431 59 76 59C77.6569 59 79 60.3432 79 62Z" fill="#339FB1"/>
</g>
</g>
</svg>
