<svg width="156" height="156" viewBox="0 0 156 156" fill="none" xmlns="http://www.w3.org/2000/svg">
<g id="icons / icon_computer">
<g id="icons / icon_computer_2">
<path id="bg" fill-rule="evenodd" clip-rule="evenodd" d="M101 49C109.284 49 116 42.2843 116 34C116 25.7158 109.284 19 101 19C92.7157 19 86 25.7158 86 34C86 42.2843 92.7157 49 101 49ZM86 64.4142C86 54.0942 76.4151 46.5932 66.6284 49.8679C44.1116 57.4024 10 72.1913 10 92.6419C10 113.092 44.1116 127.881 66.6284 135.416C76.4151 138.691 86 131.19 86 120.87V64.4142ZM146 62C146 65.3137 143.314 68 140 68C136.686 68 134 65.3137 134 62C134 58.6863 136.686 56 140 56C143.314 56 146 58.6863 146 62Z" fill="#E7F5F9"/>
<path id="Combined Shape" fill-rule="evenodd" clip-rule="evenodd" d="M66.5003 94.3041L67.0664 88.9419H45.6886C42.5518 88.9419 40 86.383 40 83.2376V43.7044C40 40.5589 42.5518 38 45.6886 38H105.311C108.448 38 111 40.5589 111 43.7044V83.2376C111 86.383 108.448 88.9419 105.311 88.9419H85.1577L85.7239 94.3041C85.7694 94.7369 85.6299 95.1685 85.3397 95.492C85.0494 95.8153 84.6358 96 84.2021 96H68.0221C67.5882 96 67.1746 95.8155 66.8845 95.492C66.5941 95.1685 66.4546 94.7369 66.5003 94.3041ZM43.0605 81.5768V83.2375C43.0605 84.6908 44.2394 85.8729 45.6886 85.8729H105.311C106.76 85.8729 107.939 84.6908 107.939 83.2375V81.5768H43.0605Z" fill="#363434"/>
<path id="Combined Shape_2" fill-rule="evenodd" clip-rule="evenodd" d="M105.827 104.733C106.074 105.214 106.055 105.79 105.778 106.254C105.5 106.717 105.004 107 104.469 107H47.5307C46.996 107 46.4998 106.717 46.2223 106.254C45.9447 105.79 45.9259 105.214 46.1725 104.733L49.1957 98.8361C49.4592 98.3224 49.9829 98 50.5539 98H101.446C102.017 98 102.541 98.3224 102.804 98.8361L105.827 104.733ZM112.3 107H114.7C118.174 107 121 109.899 121 113.462C121 114.311 120.328 115 119.5 115H107.5C106.672 115 106 114.311 106 113.462C106 109.899 108.826 107 112.3 107Z" fill="#339FB1"/>
</g>
</g>
</svg>
