<svg width="156" height="156" viewBox="0 0 156 156" fill="none" xmlns="http://www.w3.org/2000/svg">
<g id="icons / icon_pharmacy">
<g id="icons / icon_pharmacy_2">
<path id="bg" fill-rule="evenodd" clip-rule="evenodd" d="M101 49C109.284 49 116 42.2843 116 34C116 25.7158 109.284 19 101 19C92.7157 19 86 25.7158 86 34C86 42.2843 92.7157 49 101 49ZM86 64.4142C86 54.0942 76.4151 46.5932 66.6284 49.8679C44.1116 57.4024 10 72.1913 10 92.6419C10 113.092 44.1116 127.881 66.6284 135.416C76.4151 138.691 86 131.19 86 120.87V64.4142ZM146 62C146 65.3137 143.314 68 140 68C136.686 68 134 65.3137 134 62C134 58.6863 136.686 56 140 56C143.314 56 146 58.6863 146 62Z" fill="#E7F5F9"/>
<path id="Shape" fill-rule="evenodd" clip-rule="evenodd" d="M73.1328 45C73.1328 44.4477 73.5805 44 74.1328 44H89C89.5523 44 90 44.4477 90 45V55.1292C90 55.6815 89.5523 56.1292 89 56.1292H83.7102L80.3144 57.9519C80.0283 59.9801 78.282 61.5457 76.1761 61.5457C76.1502 61.5457 76.1246 61.5448 76.0991 61.544L76.0633 61.5428C75.2536 62.9578 74.046 64.117 72.594 64.8669C77.7356 66.5054 81.4704 67.9264 81.4704 73.6039V78H56V73.6039C56 67.9264 59.7348 66.5054 64.8764 64.867C63.4244 64.117 62.2168 62.9578 61.4071 61.5429L61.3713 61.544L61.3711 61.544C61.3456 61.5449 61.32 61.5458 61.2943 61.5458C58.9893 61.5458 57.1141 59.6705 57.1141 57.3656C57.1141 51.0088 62.3273 45.8373 68.7352 45.8373C70.2908 45.8373 71.7755 46.1428 73.1328 46.6953V45ZM59 57C59 57.9193 59.4175 58.7041 60 59C59.8854 58.3596 59.8241 57.6897 59.8241 57C59.8241 56.3104 59.8853 55.6404 60 55C59.4175 55.2959 59 56.0807 59 57ZM61.2989 53.7707C60.8451 53.7707 60.4088 53.852 60 54C61.5053 50.4626 64.8178 48 68.6534 48C70.2184 48 71.6963 48.4102 73 49.1358V50.5197C71.7335 49.6731 70.2449 49.1842 68.6534 49.1842C65.5564 49.1842 62.8485 51.0343 61.4103 53.7738L61.375 53.7726C61.3497 53.7716 61.3244 53.7707 61.2989 53.7707ZM63.3461 61.4558C64.5354 63.0017 66.4031 64 68.5 64C72.0841 64 75 61.0841 75 57.5C75 57.0736 74.9583 56.6568 74.8795 56.2531H73.9353C73.383 56.2531 72.9353 55.8054 72.9353 55.2531V52.7531C71.7729 51.6664 70.213 51 68.5 51C64.9159 51 62 53.9159 62 57.5C62 58.1779 62.1044 58.8318 62.2978 59.4466H70.3529C70.9077 59.4466 71.3575 59.8964 71.3575 60.4512C71.3575 61.0061 70.9077 61.4558 70.3529 61.4558H63.3461ZM77 59C77.1147 58.3999 77.1759 57.7722 77.1759 57.1258C77.1759 56.7434 77.1543 56.3676 77.1131 56H77.7345C77.9015 56.32 77.9996 56.7068 78 57.1234C78 57.9874 77.5825 58.7228 77 59ZM87.5 54.4353C87.7761 54.4353 88 54.2114 88 53.9353V46.5C88 46.2239 87.7761 46 87.5 46H75.5C75.2239 46 75 46.2239 75 46.5V53.9353C75 54.2114 75.2239 54.4353 75.5 54.4353H80.3384L80.3173 56L83.1579 54.4353H87.5Z" fill="#339FB1"/>
<path id="Shape_2" fill-rule="evenodd" clip-rule="evenodd" d="M111 63C111 62.4477 111.448 62 112 62H117C117.552 62 118 62.4477 118 63V76H122C123.654 76 125 77.346 125 79V81C125 82.654 123.654 84 122 84V115H50V84C48.346 84 47 82.654 47 81V79C47 77.346 48.346 76 50 76H105V67C105 66.4477 105.448 66 106 66H108C108.552 66 109 66.4477 109 67V76H111V63ZM122 80.5C122 80.776 121.566 81 121.034 81H50.9655C50.4335 81 50 80.776 50 80.5V79.5C50 79.224 50.4335 79 50.9655 79H121.034C121.566 79 122 79.224 122 79.5V80.5ZM114 98C114.552 98 115 97.5523 115 97C115 96.4477 114.552 96 114 96H87C86.4477 96 86 96.4477 86 97C86 97.5523 86.4477 98 87 98H114ZM91 102C90.4477 102 90 101.552 90 101C90 100.448 90.4477 100 91 100H114C114.552 100 115 100.448 115 101C115 101.552 114.552 102 114 102H91ZM87 102C87.5523 102 88 101.552 88 101C88 100.448 87.5523 100 87 100C86.4477 100 86 100.448 86 101C86 101.552 86.4477 102 87 102Z" fill="#363434"/>
</g>
</g>
</svg>
