<svg width="156" height="156" viewBox="0 0 156 156" fill="none" xmlns="http://www.w3.org/2000/svg">
<g id="icons / icon_cup">
<g id="icons / icon_cup_2">
<path id="bg" fill-rule="evenodd" clip-rule="evenodd" d="M101 49C109.284 49 116 42.2843 116 34C116 25.7158 109.284 19 101 19C92.7157 19 86 25.7158 86 34C86 42.2843 92.7157 49 101 49ZM86 64.4142C86 54.0942 76.4151 46.5932 66.6284 49.8679C44.1116 57.4024 10 72.1913 10 92.6419C10 113.092 44.1116 127.881 66.6284 135.416C76.4151 138.691 86 131.19 86 120.87V64.4142ZM146 62C146 65.3137 143.314 68 140 68C136.686 68 134 65.3137 134 62C134 58.6863 136.686 56 140 56C143.314 56 146 58.6863 146 62Z" fill="#E7F5F9"/>
<path id="Shape" fill-rule="evenodd" clip-rule="evenodd" d="M102.159 70.9589C101.921 70.3953 101.362 70 100.711 70H93H90H58.5708C57.7032 70 57 70.7013 57 71.5665V103.724C57 107.47 59.4041 110.667 62.7544 111.861V113.301C62.7544 115.892 64.8683 118 67.4669 118H91.8148C94.4128 118 96.5273 115.892 96.5273 113.301V111.861C99.8776 110.667 102.282 107.47 102.282 103.724V94.0974H106.779C109.658 94.0974 112 91.7618 112 88.8907V76.1655C112 73.2945 109.658 70.9589 106.779 70.9589H102.159ZM91.8148 114.867H67.4669C66.6011 114.867 65.8961 114.165 65.8961 113.301V112.361H93.3856V113.301C93.3856 114.165 92.6806 114.867 91.8148 114.867ZM96 89.4435L94.9886 87H88.0114L87 89.4435V97C87 97.5523 87.4477 98 88 98H95C95.5523 98 96 97.5523 96 97V89.4435ZM108.86 88.8884C108.86 90.0318 107.926 90.9618 106.779 90.9618H102.282V74.0918H106.779C107.926 74.0918 108.86 75.0218 108.86 76.1653V88.8884Z" fill="#363434"/>
<path id="Combined Shape" fill-rule="evenodd" clip-rule="evenodd" d="M91.7973 41C94.6661 41 97 43.298 97 46.1221C97 48.9469 94.6661 50.9962 91.7973 50.9956H85.6045C85.6893 51.1668 85.7884 51.3196 85.8893 51.4751C86.1902 51.9392 86.5069 52.4274 86.5069 53.5C86.5069 54.6799 86.2444 55.1877 85.9839 55.6917C85.9281 55.7995 85.8725 55.9071 85.8196 56.021C85.8196 56.021 88.2257 56.0357 88.2573 56.0374C91.2463 56.2214 93.3641 58.0673 93.3641 60.8779C93.3641 63.7026 91.0309 66 88.1621 66H57.325C54.4562 66 52.123 63.7026 52.123 60.8779C52.123 60.2736 52.3248 59.9155 52.5719 59.4769C52.6509 59.3367 52.7346 59.1882 52.8177 59.0209H50.3601C47.4919 59.0209 45 56.3242 45 53.5C45 50.7966 47.2244 48.1919 50.067 47.9957H51.062C50.7614 47.3488 50.5936 46.8786 50.5936 46.1221C50.5936 43.298 52.9275 41 55.7957 41H91.7973ZM81.0852 56.021C82.2736 56.021 83.181 55.3864 83.181 53.5003C83.181 51.6143 82.0573 51.077 80.6969 50.9926C79.8757 50.9423 79.2438 50.2591 79.2694 49.4487C79.2955 48.639 79.9692 47.9957 80.7921 47.9957H91.7973C92.9857 47.9957 93.9427 47.1701 93.9427 46C93.9427 44.8299 92.9857 43.9999 91.7973 43.9999H55.7957C54.6074 43.9999 53.6404 44.8299 53.6404 46C53.6404 47.1684 54.6056 47.9939 55.8023 47.9957H67.3656C68.2071 47.9957 68.889 48.6671 68.889 49.4956C68.889 50.3241 68.2071 50.9956 67.3656 50.9956H50.1289C48.9953 51.101 48.1274 52.0825 48.1274 53.5003C48.1274 54.9181 49.1717 56.021 50.3601 56.021C50.3601 56.021 57.3492 56.021 57.3878 56.0216C57.3991 56.0216 57.4099 56.0222 57.5521 56.0345C58.2608 56.1277 58.8154 56.7019 58.8696 57.4495L58.8698 57.4585C58.87 57.4669 58.8706 57.4831 58.8713 57.5216C58.8713 57.6622 58.8517 57.7987 58.8059 57.9569L58.8021 57.9689L58.7868 58.0149C58.7267 58.1842 58.6369 58.3401 58.4994 58.503C58.3411 58.6829 58.14 58.8258 57.8264 58.9453C57.7092 58.9834 57.5854 59.008 57.4563 59.0174C56.1367 59.0344 55.1771 59.5965 55.1771 61.1964C55.1771 62.3665 56.1367 63.0007 57.325 63.0007H88.1621C89.351 63.0007 90.3381 62.367 90.3381 61.1964C90.3381 60.0052 89.4492 59.1358 88.1097 59.0344L78.7163 59.0209C77.8754 59.0209 77.1929 58.3495 77.1929 57.521C77.1929 56.6931 77.8754 56.021 78.7163 56.021H81.0852Z" fill="#339FB1"/>
</g>
</g>
</svg>
