<svg width="156" height="156" viewBox="0 0 156 156" fill="none" xmlns="http://www.w3.org/2000/svg">
<g id="icons / icon_glass">
<g id="icons / icon_glass_2">
<path id="bg" fill-rule="evenodd" clip-rule="evenodd" d="M101 49C109.284 49 116 42.2843 116 34C116 25.7158 109.284 19 101 19C92.7157 19 86 25.7158 86 34C86 42.2843 92.7157 49 101 49ZM86 64.4142C86 54.0942 76.4151 46.5932 66.6284 49.8679C44.1116 57.4024 10 72.1913 10 92.6419C10 113.092 44.1116 127.881 66.6284 135.416C76.4151 138.691 86 131.19 86 120.87V64.4142ZM146 62C146 65.3137 143.314 68 140 68C136.686 68 134 65.3137 134 62C134 58.6863 136.686 56 140 56C143.314 56 146 58.6863 146 62Z" fill="#E7F5F9"/>
<path id="Shape" fill-rule="evenodd" clip-rule="evenodd" d="M114.438 109.855H105.75V115.726C105.75 115.818 105.745 115.91 105.738 116H86.3878C86.3805 115.91 86.3758 115.818 86.3758 115.726V109.855H40.5625C39.6997 109.855 39 109.154 39 108.29V46.3228V41.5651C39 40.7007 39.6997 40 40.5625 40H83.965H88.5966H114.435C115.298 40 115.998 40.7007 115.998 41.5651L116 46.3229V108.29C116 109.154 115.3 109.855 114.438 109.855ZM91.8337 94.214H93.2319C92.8986 91.9151 91.7706 89.7842 90.1164 88.2752C90.8358 90.1708 91.4131 92.1687 91.8337 94.214ZM91.3839 79.0368C94.3148 81.1431 96.1434 84.566 96.2 88.2362C95.9538 89.1511 95.7573 90.0818 95.6134 91.024C95.2152 89.9669 94.6859 88.9655 94.0431 88.051C93.4866 84.9465 92.5973 81.9291 91.3839 79.0368ZM98.2658 82.9619C98.4428 82.6243 98.6253 82.2895 98.8172 81.9601C98.8045 81.8798 98.7961 81.7981 98.7959 81.7144C98.7959 79.9569 99.002 78.191 99.4023 76.4714C97.6455 78.4843 97.5156 81.1029 97.51 81.2439C97.5089 81.2729 97.5057 81.3012 97.5026 81.3296L97.5003 81.3506C97.7872 81.8712 98.0431 82.4091 98.2658 82.9619ZM102.305 82.2786C101.177 86.13 100.438 90.3863 100.287 94.214H98.4578C98.5838 89.9168 99.9459 85.7772 102.305 82.2786ZM103.415 94.2408H104.188C105.05 94.2408 105.75 94.9401 105.75 95.8024V106.109H113V51.0175H42V106.109H86.3752V95.8021C86.3752 94.9398 87.0748 94.2405 87.9377 94.2405H88.6375C87.9316 91.0959 86.8213 88.1 85.3862 85.493L85.2497 85.245C84.9222 84.6507 85.0163 83.9131 85.4822 83.4198C85.948 82.9265 86.6795 82.7905 87.292 83.0828L89.3403 84.0612C89.5494 84.161 89.7539 84.2689 89.9561 84.3811C89.1514 81.6674 88.0588 79.0466 86.6852 76.5517L86.522 76.2555C86.1948 75.6611 86.2891 74.9236 86.755 74.4304C87.2211 73.9373 87.9523 73.8011 88.5648 74.0938L91.0073 75.2604C92.5136 75.98 93.8597 76.9466 95.0092 78.0952C95.6789 76.1251 97.0667 73.6856 99.9472 72.2414L101.625 71.401C102.219 71.1038 102.935 71.2137 103.412 71.6747C103.889 72.1358 104.022 72.8478 103.745 73.4501C103.194 74.6448 102.765 75.9013 102.461 77.1876C103.49 76.1155 104.618 75.1275 105.837 74.2404C106.414 73.8208 107.202 73.8448 107.752 74.2989C108.302 74.7529 108.474 75.5217 108.107 76.2901C105.609 80.644 103.681 88.1194 103.415 94.2408Z" fill="#363434"/>
<path id="Combined Shape" fill-rule="evenodd" clip-rule="evenodd" d="M68.5 57C68.8946 57 69.28 57.1605 69.5605 57.4395C69.8396 57.7185 70 58.1055 70 58.5C70 58.8945 69.8395 59.2815 69.5605 59.562C69.2815 59.841 68.8946 60 68.5 60C68.104 60 67.7185 59.841 67.438 59.562C67.1591 59.2815 67 58.8945 67 58.5C67 58.1055 67.1591 57.7185 67.438 57.4395C67.7185 57.1605 68.1055 57 68.5 57ZM65.5437 61.4564C64.9352 60.8479 63.9491 60.8479 63.3406 61.4564L49.4563 75.3405C48.8479 75.9488 48.8479 76.9352 49.4563 77.5437C49.7605 77.8478 50.1592 78 50.5578 78C50.9565 78 51.3552 77.8478 51.6594 77.5437L65.5437 63.6597C66.1521 63.0513 66.1521 62.0649 65.5437 61.4564ZM72.5513 69.448C71.9528 68.8507 70.9829 68.8507 70.3844 69.448L50.4487 88.3896C49.8504 88.9867 49.8504 89.9549 50.4487 90.5522C50.748 90.8506 51.1401 91 51.5322 91C51.9243 91 52.3163 90.8506 52.6156 90.5522L72.5513 71.6106C73.1496 71.0134 73.1496 70.0452 72.5513 69.448ZM52.5605 115.44C52.28 115.16 51.8944 115 51.5 115C51.1055 115 50.7185 115.16 50.4395 115.44C50.159 115.719 50 116.106 50 116.5C50 116.895 50.159 117.282 50.4395 117.56C50.7185 117.839 51.1055 118 51.5 118C51.8945 118 52.2815 117.84 52.5605 117.56C52.8393 117.282 53 116.895 53 116.5C53 116.106 52.8395 115.719 52.5605 115.44ZM58.5 115C57.6716 115 57 115.672 57 116.5C57 117.328 57.6716 118 58.5 118H114.5C115.328 118 116 117.328 116 116.5C116 115.672 115.328 115 114.5 115H58.5Z" fill="#339FB1"/>
</g>
</g>
</svg>
