<?xml version="1.0" encoding="UTF-8"?>
<svg width="125px" height="30px" viewBox="0 0 125 30" version="1.1" xmlns="http://www.w3.org/2000/svg" xmlns:xlink="http://www.w3.org/1999/xlink">
    <!-- Generator: Sketch 50.2 (55047) - http://www.bohemiancoding.com/sketch -->
    <title>Logo_qodeclub_white</title>
    <desc>Created with Sketch.</desc>
    <defs></defs>
    <g id="design" stroke="none" stroke-width="1" fill="none" fill-rule="evenodd">
        <g id="Qodeclub_design_v2" transform="translate(-73.000000, -5136.000000)">
            <g id="end" transform="translate(0.000000, 5064.000000)">
                <g id="Logo_qodeclub_white" transform="translate(73.000000, 72.000000)">
                    <path d="M7.98232881,27.1816284 C7.18930917,27.3277669 6.74063374,27.4008351 6.63628905,27.4008351 C4.46591952,27.4008351 2.81729816,26.7797557 1.69037551,25.5375783 C0.56345287,24.2954009 0,22.473916 0,20.0730689 L0,7.07724426 C0,4.75990491 0.568670026,3.00104984 1.70602714,1.8006263 C2.84338425,0.600202766 4.48678845,0 6.63628905,0 C8.78578965,0 10.4291939,0.600202766 11.566551,1.8006263 C12.7039081,3.00104984 13.2725781,4.75990491 13.2725781,7.07724426 L13.2725781,20.0730689 C13.2725781,22.2860236 12.7717311,24.0396595 11.7700221,25.3340292 L14.0864626,26.8058455 L12.2708741,30 L7.98232881,27.1816284 Z M7.63799306,21.7014614 C7.78407562,21.200415 7.85711581,20.5532399 7.85711581,19.7599165 L7.85711581,7.17118998 C7.85711581,6.48225125 7.76842415,5.93945919 7.59103818,5.54279749 C7.41365221,5.1461358 7.08497137,4.94780793 6.6049858,4.94780793 C5.74935935,4.94780793 5.32155254,5.67848956 5.32155254,7.13987474 L5.32155254,19.8538622 C5.32155254,20.6054317 5.40502704,21.2265111 5.57197854,21.717119 C5.73893004,22.2077269 6.09369667,22.4530271 6.63628905,22.4530271 C7.1580125,22.4530271 7.49191049,22.2025077 7.63799306,21.7014614 Z M18.7780372,25.4123173 C17.6511146,24.0866322 17.0876617,22.2233941 17.0876617,19.822547 L17.0876617,7.01461378 C17.0876617,4.69727443 17.6511146,2.94885767 18.7780372,1.76931106 C19.9049599,0.589764457 21.5535812,0 23.7239508,0 C25.8943203,0 27.5429417,0.589764457 28.6698643,1.76931106 C29.796787,2.94885767 30.3602398,4.69727443 30.3602398,7.01461378 L30.3602398,19.822547 C30.3602398,22.244271 29.796787,24.1127283 28.6698643,25.4279749 C27.5429417,26.7432216 25.8943203,27.4008351 23.7239508,27.4008351 C21.5535812,27.4008351 19.9049599,26.7380025 18.7780372,25.4123173 Z M24.6943515,21.8267223 C24.861303,21.4091837 24.9447775,20.8246384 24.9447775,20.0730689 L24.9447775,6.92066806 C24.9447775,6.33611399 24.8665202,5.86117093 24.7100032,5.49582463 C24.5534861,5.13047834 24.2352396,4.94780793 23.755254,4.94780793 C22.8578897,4.94780793 22.4092143,5.62629802 22.4092143,6.98329854 L22.4092143,20.1043841 C22.4092143,20.8768306 22.5031231,21.4613759 22.6909435,21.8580376 C22.878764,22.2546993 23.2230963,22.4530271 23.7239508,22.4530271 C24.2039363,22.4530271 24.5274,22.244261 24.6943515,21.8267223 Z M33.9875039,0.250521921 L41.4063743,0.250521921 C43.3263165,0.250521921 44.7662516,0.782875678 45.7262228,1.84759916 C46.6861939,2.91232265 47.1766066,4.48850731 47.1974755,6.57620042 L47.260082,19.1649269 C47.280951,21.8162972 46.8218412,23.8100142 45.882739,25.1461378 C44.9436368,26.4822614 43.3889243,27.1503132 41.2185547,27.1503132 L33.9875039,27.1503132 L33.9875039,0.250521921 Z M40.3420637,22.3903967 C41.3229038,22.3903967 41.8133165,21.9102344 41.8133165,20.9498956 L41.8133165,7.07724426 C41.8133165,6.47181326 41.7663621,6.01774682 41.6724519,5.71503132 C41.5785417,5.41231581 41.4063755,5.20876879 41.1559482,5.10438413 C40.905521,4.99999948 40.5194514,4.94780793 39.997728,4.94780793 L39.4029662,4.94780793 L39.4029662,22.3903967 L40.3420637,22.3903967 Z M50.8873462,27.1503132 L50.8873462,0.250521921 L61.6556642,0.250521921 L61.6556642,5.44885177 L56.365415,5.44885177 L56.365415,10.6784969 L61.4365415,10.6784969 L61.4365415,15.7515658 L56.365415,15.7515658 L56.365415,21.9206681 L62,21.9206681 L62,27.1503132 L50.8873462,27.1503132 Z" id="Qodeclub" fill="#FFFFFF"></path>
                    <path d="M66.7705817,25.1794286 C65.590188,23.9657082 65,22.2994392 65,20.1805714 L65,7.96114286 C65,5.32798683 65.5327361,3.34286383 66.5982242,2.00571429 C67.6637123,0.668564743 69.3350412,0 71.6122609,0 C73.5969937,0 75.1952019,0.534851794 76.4069335,1.60457143 C77.6186651,2.67429106 78.2245218,4.21713278 78.2245218,6.23314286 L78.2245218,10.8 L72.8657701,10.8 L72.8657701,6.88114286 C72.8657701,6.11999619 72.7717578,5.59543001 72.5837305,5.30742857 C72.3957032,5.01942713 72.0718832,4.87542857 71.6122609,4.87542857 C71.1317466,4.87542857 70.8027038,5.03999835 70.6251224,5.36914286 C70.4475411,5.69828736 70.3587517,6.1817111 70.3587517,6.81942857 L70.3587517,20.1188571 C70.3587517,20.8182892 70.4632098,21.327427 70.672129,21.6462857 C70.8810482,21.9651445 71.1944224,22.1245714 71.6122609,22.1245714 C72.4479378,22.1245714 72.8657701,21.4560067 72.8657701,20.1188571 L72.8657701,15.336 L78.2871972,15.336 L78.2871972,20.3348571 C78.2871972,24.7783079 76.0204575,27 71.48691,27 C69.5230691,27 67.9509754,26.3931489 66.7705817,25.1794286 Z M81.5424039,26.7531429 L81.5424039,0.246857143 L86.9324933,0.246857143 L86.9324933,22.248 L92.4792714,22.248 L92.4792714,26.7531429 L81.5424039,26.7531429 Z M96.7529542,25.1485714 C95.6770201,23.9142795 95.1390612,22.0834407 95.1390612,19.656 L95.1390612,0.246857143 L100.372462,0.246857143 L100.372462,19.44 C100.372462,20.2834328 100.456028,20.9417119 100.623164,21.4148571 C100.790299,21.8880024 101.145457,22.1245714 101.688647,22.1245714 C102.231837,22.1245714 102.586994,21.8931452 102.754129,21.4302857 C102.921265,20.9674263 103.004831,20.3040043 103.004831,19.44 L103.004831,0.246857143 L108.238232,0.246857143 L108.238232,19.656 C108.238232,22.0834407 107.700273,23.9142795 106.624339,25.1485714 C105.548405,26.3828633 103.903191,27 101.688647,27 C99.4741027,27 97.8288883,26.3828633 96.7529542,25.1485714 Z M111.775478,0.246857143 L119.077169,0.246857143 C121.04101,0.246857143 122.466862,0.719995269 123.354769,1.66628571 C124.242676,2.61257616 124.686623,4.15541787 124.686623,6.29485714 L124.686623,7.46742857 C124.686623,9.99772694 123.767392,11.5097118 121.928903,12.0034286 C123.057066,12.29143 123.850948,12.9599948 124.31057,14.0091429 C124.770192,15.058291 125,16.4468485 125,18.1748571 C125,20.9931569 124.571722,23.1274213 123.715153,24.5777143 C122.858584,26.0280073 121.312605,26.7531429 119.077169,26.7531429 L111.775478,26.7531429 L111.775478,0.246857143 Z M118.137037,10.2137143 C118.59666,10.2137143 118.910034,10.0440017 119.077169,9.70457143 C119.244305,9.36514116 119.327871,8.88686023 119.327871,8.26971429 L119.327871,5.616 C119.327871,4.75199568 118.941376,4.32 118.168375,4.32 L117.040217,4.32 L117.040217,10.2137143 L118.137037,10.2137143 Z M119.672586,20.1188571 L119.672586,16.8171429 C119.672586,16.0148531 119.552459,15.4080021 119.312202,14.9965714 C119.071945,14.5851408 118.64889,14.3794286 118.043024,14.3794286 L117.040217,14.3794286 L117.040217,22.0628571 L117.572958,22.0937143 C118.972717,22.0937143 119.672586,21.4354352 119.672586,20.1188571 Z" id="Combined-Shape" fill="#339FB1"></path>
                </g>
            </g>
        </g>
    </g>
</svg>