<?xml version="1.0" encoding="UTF-8"?>
<svg width="126px" height="30px" viewBox="0 0 126 30" version="1.1" xmlns="http://www.w3.org/2000/svg" xmlns:xlink="http://www.w3.org/1999/xlink">
    <!-- Generator: Sketch 50.2 (55047) - http://www.bohemiancoding.com/sketch -->
    <title>Logo_qodeclub_black</title>
    <desc>Created with Sketch.</desc>
    <defs></defs>
    <g id="design" stroke="none" stroke-width="1" fill="none" fill-rule="evenodd">
        <g id="Qodeclub_design_v2" transform="translate(-73.000000, -30.000000)">
            <g id="header" transform="translate(0.000000, -2.000000)">
                <g id="bar_1" transform="translate(0.000000, 2.000000)">
                    <g id="Logo_qodeclub_black" transform="translate(73.000000, 30.000000)">
                        <path d="M8.96138622,27.1816284 C8.16806284,27.3277669 7.71921555,27.4008351 7.6148309,27.4008351 C5.44363006,27.4008351 3.79437724,26.7797557 2.66702296,25.5375783 C1.53966868,24.2954009 0.976,22.473916 0.976,20.0730689 L0.976,7.07724426 C0.976,4.75990491 1.54488784,3.00104984 2.68268058,1.8006263 C3.82047333,0.600202766 5.46450699,0 7.6148309,0 C9.7651548,0 11.4091885,0.600202766 12.5469812,1.8006263 C13.684774,3.00104984 14.2536618,4.75990491 14.2536618,7.07724426 L14.2536618,20.0730689 C14.2536618,22.2860236 13.752623,24.0396595 12.7505303,25.3340292 L15.067858,26.8058455 L13.2515741,30 L8.96138622,27.1816284 Z M8.61691858,21.7014614 C8.7630571,21.200415 8.83612526,20.5532399 8.83612526,19.7599165 L8.83612526,7.17118998 C8.83612526,6.48225125 8.74739963,5.93945919 8.56994572,5.54279749 C8.39249181,5.1461358 8.06368507,4.94780793 7.58351566,4.94780793 C6.72756148,4.94780793 6.29959081,5.67848956 6.29959081,7.13987474 L6.29959081,19.8538622 C6.29959081,20.6054317 6.38309729,21.2265111 6.55011273,21.717119 C6.71712818,22.2077269 7.07203069,22.4530271 7.6148309,22.4530271 C8.13675418,22.4530271 8.47078006,22.2025077 8.61691858,21.7014614 Z M19.7612296,25.4123173 C18.6338754,24.0866322 18.0702067,22.2233941 18.0702067,19.822547 L18.0702067,7.01461378 C18.0702067,4.69727443 18.6338754,2.94885767 19.7612296,1.76931106 C20.8885839,0.589764457 22.5378367,0 24.7090376,0 C26.8802384,0 28.5294912,0.589764457 29.6568455,1.76931106 C30.7841998,2.94885767 31.3478685,4.69727443 31.3478685,7.01461378 L31.3478685,19.822547 C31.3478685,22.244271 30.7841998,24.1127283 29.6568455,25.4279749 C28.5294912,26.7432216 26.8802384,27.4008351 24.7090376,27.4008351 C22.5378367,27.4008351 20.8885839,26.7380025 19.7612296,25.4123173 Z M25.67981,21.8267223 C25.8468255,21.4091837 25.9303319,20.8246384 25.9303319,20.0730689 L25.9303319,6.92066806 C25.9303319,6.33611399 25.8520446,5.86117093 25.6954676,5.49582463 C25.5388907,5.13047834 25.2205222,4.94780793 24.7403528,4.94780793 C23.8426448,4.94780793 23.3937975,5.62629802 23.3937975,6.98329854 L23.3937975,20.1043841 C23.3937975,20.8768306 23.4877423,21.4613759 23.6756347,21.8580376 C23.863527,22.2546993 24.2079912,22.4530271 24.7090376,22.4530271 C25.189207,22.4530271 25.5127946,22.244261 25.67981,21.8267223 Z M34.9765219,0.250521921 L42.3982338,0.250521921 C44.3189115,0.250521921 45.7593981,0.782875678 46.719737,1.84759916 C47.6800758,2.91232265 48.1706763,4.48850731 48.1915532,6.57620042 L48.2541837,19.1649269 C48.2750606,21.8162972 47.8157751,23.8100142 46.8763132,25.1461378 C45.9368513,26.4822614 44.3815432,27.1503132 42.2103424,27.1503132 L34.9765219,27.1503132 L34.9765219,0.250521921 Z M41.3335157,22.3903967 C42.3147314,22.3903967 42.8053319,21.9102344 42.8053319,20.9498956 L42.8053319,7.07724426 C42.8053319,6.47181326 42.7583596,6.01774682 42.6644134,5.71503132 C42.5704672,5.41231581 42.3982351,5.20876879 42.1477119,5.10438413 C41.8971887,4.99999948 41.5109713,4.94780793 40.989048,4.94780793 L40.3940585,4.94780793 L40.3940585,22.3903967 L41.3335157,22.3903967 Z M51.8828372,27.1503132 L51.8828372,0.250521921 L62.6552797,0.250521921 L62.6552797,5.44885177 L57.3630042,5.44885177 L57.3630042,10.6784969 L62.4360731,10.6784969 L62.4360731,15.7515658 L57.3630042,15.7515658 L57.3630042,21.9206681 L62.9997474,21.9206681 L62.9997474,27.1503132 L51.8828372,27.1503132 Z" id="Qodeclub" fill="#363434"></path>
                        <path d="M67.8027223,25.5532359 C66.6231757,24.321497 66.0334113,22.6304909 66.0334113,20.480167 L66.0334113,8.07933194 C66.0334113,5.40708476 66.565765,3.39249113 67.6304885,2.03549061 C68.695212,0.678490084 70.3653414,0 72.6409269,0 C74.6242354,0 76.2212967,0.542792067 77.4321587,1.62839248 C78.6430207,2.7139929 79.2484426,4.27973925 79.2484426,6.3256785 L79.2484426,10.960334 L73.8935365,10.960334 L73.8935365,6.98329854 C73.8935365,6.21085209 73.7995918,5.67849833 73.6116994,5.38622129 C73.423807,5.09394426 73.1002194,4.94780793 72.6409269,4.94780793 C72.1607575,4.94780793 71.8319508,5.11482088 71.6544969,5.44885177 C71.477043,5.78288267 71.3883173,6.27348319 71.3883173,6.92066806 L71.3883173,20.4175365 C71.3883173,21.1273522 71.4927004,21.6440485 71.7014697,21.9676409 C71.910239,22.2912334 72.2233883,22.4530271 72.6409269,22.4530271 C73.4760042,22.4530271 73.8935365,21.7745371 73.8935365,20.4175365 L73.8935365,15.5636743 L79.3110731,15.5636743 L79.3110731,20.6367432 C79.3110731,25.1461603 77.04596,27.4008351 72.515666,27.4008351 C70.5532344,27.4008351 68.9822689,26.7849748 67.8027223,25.5532359 Z M82.5639436,27.1503132 L82.5639436,0.250521921 L87.9501649,0.250521921 L87.9501649,22.5782881 L93.4929624,22.5782881 L93.4929624,27.1503132 L82.5639436,27.1503132 Z M97.7635783,25.5219207 C96.6884163,24.2693048 96.1508434,22.4112858 96.1508434,19.9478079 L96.1508434,0.250521921 L101.380489,0.250521921 L101.380489,19.7286013 C101.380489,20.5845554 101.463995,21.2526072 101.63101,21.7327766 C101.798026,22.212946 102.152928,22.4530271 102.695729,22.4530271 C103.238529,22.4530271 103.593431,22.2181652 103.760447,21.7484342 C103.927462,21.2787033 104.010969,20.6054324 104.010969,19.7286013 L104.010969,0.250521921 L109.240614,0.250521921 L109.240614,19.9478079 C109.240614,22.4112858 108.703041,24.2693048 107.627879,25.5219207 C106.552717,26.7745365 104.908683,27.4008351 102.695729,27.4008351 C100.482774,27.4008351 98.8387402,26.7745365 97.7635783,25.5219207 Z M112.775322,0.250521921 L120.071772,0.250521921 C122.034204,0.250521921 123.459033,0.730684134 124.346303,1.69102296 C125.233572,2.6513618 125.6772,4.21710814 125.6772,6.38830898 L125.6772,7.5782881 C125.6772,10.1461506 124.758629,11.680582 122.921459,12.1816284 C124.048814,12.4739054 124.842125,13.1523955 125.301418,14.217119 C125.76071,15.2818425 125.990353,16.6910142 125.990353,18.4446764 C125.990353,21.304816 125.562382,23.4707651 124.706428,24.9425887 C123.850474,26.4144124 122.305604,27.1503132 120.071772,27.1503132 L112.775322,27.1503132 L112.775322,0.250521921 Z M119.132315,10.3653445 C119.591608,10.3653445 119.904757,10.1931124 120.071772,9.84864301 C120.238788,9.50417364 120.322294,9.01879228 120.322294,8.39248434 L120.322294,5.6993737 C120.322294,4.82254259 119.936077,4.38413361 119.16363,4.38413361 L118.036282,4.38413361 L118.036282,10.3653445 L119.132315,10.3653445 Z M120.666762,20.4175365 L120.666762,17.0668058 C120.666762,16.2526055 120.546721,15.6367453 120.306637,15.2192067 C120.066552,14.8016681 119.643801,14.5929019 119.03837,14.5929019 L118.036282,14.5929019 L118.036282,22.3903967 L118.568641,22.4217119 C119.967395,22.4217119 120.666762,21.7536601 120.666762,20.4175365 Z" id="Combined-Shape" fill="#339FB1"></path>
                    </g>
                </g>
            </g>
        </g>
    </g>
</svg>